<mxfile host="Electron" agent="Mozilla/5.0 (Windows NT 6.0; Win64; x64) AppleWebKit/537.36 (KHTML, like Gecko) draw.io/24.0.4 Chrome/120.0.6099.109 Electron/28.1.0 Safari/537.36" modified="2025-04-13T17:47:23.590Z" version="24.0.4" etag="2LFvHS1u20Npt4wGPycX" type="device">
  <diagram name="Страница — 1" id="Vp5nl0iZiVfFydLQLRMC">
    <mxGraphModel dx="2683" dy="1166" grid="1" gridSize="10" guides="1" tooltips="1" connect="1" arrows="1" fold="1" page="1" pageScale="1" pageWidth="827" pageHeight="1169" math="0" shadow="0">
      <root>
        <mxCell id="0" />
        <mxCell id="1" parent="0" />
        <mxCell id="9QaCa96sRWtHc6JSc8Kn-50" value="" style="endArrow=none;html=1;rounded=0;entryX=0.5;entryY=1;entryDx=0;entryDy=0;entryPerimeter=0;exitX=0.16;exitY=0.23;exitDx=0;exitDy=0;exitPerimeter=0;fillColor=#d80073;strokeColor=#A50040;" edge="1" parent="1">
          <mxGeometry width="50" height="50" relative="1" as="geometry">
            <mxPoint x="753.6600000000001" y="1025.5" as="sourcePoint" />
            <mxPoint x="669.5" y="938.0000000000002" as="targetPoint" />
          </mxGeometry>
        </mxCell>
        <mxCell id="9QaCa96sRWtHc6JSc8Kn-49" value="" style="endArrow=none;html=1;rounded=0;exitX=0.5;exitY=1;exitDx=0;exitDy=0;exitPerimeter=0;fillColor=#6d8764;strokeColor=#3A5431;strokeWidth=2;entryX=0.16;entryY=0.23;entryDx=0;entryDy=0;entryPerimeter=0;" edge="1" parent="1" source="9QaCa96sRWtHc6JSc8Kn-48" target="muuk2Ey48-B4BVq4eK8P-11">
          <mxGeometry width="50" height="50" relative="1" as="geometry">
            <mxPoint x="700.5" y="950.0000000000001" as="sourcePoint" />
            <mxPoint x="740" y="990" as="targetPoint" />
            <Array as="points" />
          </mxGeometry>
        </mxCell>
        <mxCell id="9QaCa96sRWtHc6JSc8Kn-5" value="" style="endArrow=none;html=1;rounded=0;exitX=0;exitY=0.5;exitDx=0;exitDy=0;exitPerimeter=0;fillColor=#e3c800;strokeColor=#B09500;entryX=0.98;entryY=0.5;entryDx=0;entryDy=0;entryPerimeter=0;" edge="1" parent="1">
          <mxGeometry width="50" height="50" relative="1" as="geometry">
            <mxPoint x="918" y="946" as="sourcePoint" />
            <mxPoint x="838.4799999999998" y="1031" as="targetPoint" />
          </mxGeometry>
        </mxCell>
        <mxCell id="muuk2Ey48-B4BVq4eK8P-83" value="" style="endArrow=none;html=1;rounded=0;entryX=0.5;entryY=0.98;entryDx=0;entryDy=0;entryPerimeter=0;exitX=0.5;exitY=0;exitDx=0;exitDy=0;exitPerimeter=0;fillColor=#e3c800;strokeColor=#B09500;" parent="1" edge="1">
          <mxGeometry width="50" height="50" relative="1" as="geometry">
            <mxPoint x="736" y="1144" as="sourcePoint" />
            <mxPoint x="787" y="1062" as="targetPoint" />
          </mxGeometry>
        </mxCell>
        <mxCell id="hAfyrsxasU9BH3moIb1E-1" value="" style="endArrow=none;html=1;rounded=0;entryX=0.5;entryY=0.98;entryDx=0;entryDy=0;entryPerimeter=0;exitX=0.5;exitY=0;exitDx=0;exitDy=0;exitPerimeter=0;fillColor=#d80073;strokeColor=#A50040;" parent="1" edge="1">
          <mxGeometry width="50" height="50" relative="1" as="geometry">
            <mxPoint x="734" y="1143" as="sourcePoint" />
            <mxPoint x="785" y="1061" as="targetPoint" />
          </mxGeometry>
        </mxCell>
        <mxCell id="hAfyrsxasU9BH3moIb1E-2" value="" style="endArrow=none;html=1;rounded=0;entryX=0.5;entryY=0.98;entryDx=0;entryDy=0;entryPerimeter=0;exitX=0.5;exitY=0;exitDx=0;exitDy=0;exitPerimeter=0;fillColor=#e3c800;strokeColor=#B09500;" parent="1" edge="1">
          <mxGeometry width="50" height="50" relative="1" as="geometry">
            <mxPoint x="844" y="1145" as="sourcePoint" />
            <mxPoint x="794" y="1062" as="targetPoint" />
          </mxGeometry>
        </mxCell>
        <mxCell id="hAfyrsxasU9BH3moIb1E-3" value="" style="endArrow=none;html=1;rounded=0;entryX=0.5;entryY=0.98;entryDx=0;entryDy=0;entryPerimeter=0;exitX=0.5;exitY=0;exitDx=0;exitDy=0;exitPerimeter=0;fillColor=#d80073;strokeColor=#A50040;" parent="1" edge="1">
          <mxGeometry width="50" height="50" relative="1" as="geometry">
            <mxPoint x="846" y="1144" as="sourcePoint" />
            <mxPoint x="796" y="1061" as="targetPoint" />
          </mxGeometry>
        </mxCell>
        <mxCell id="9QaCa96sRWtHc6JSc8Kn-2" value="" style="endArrow=none;html=1;rounded=0;entryX=0.5;entryY=0.98;entryDx=0;entryDy=0;entryPerimeter=0;exitX=0.5;exitY=0;exitDx=0;exitDy=0;exitPerimeter=0;fillColor=#6d8764;strokeColor=#3A5431;strokeWidth=2;" edge="1" parent="1" source="muuk2Ey48-B4BVq4eK8P-19" target="muuk2Ey48-B4BVq4eK8P-11">
          <mxGeometry width="50" height="50" relative="1" as="geometry">
            <mxPoint x="854" y="1165.5" as="sourcePoint" />
            <mxPoint x="773.98" y="1080.5" as="targetPoint" />
          </mxGeometry>
        </mxCell>
        <mxCell id="9QaCa96sRWtHc6JSc8Kn-1" value="" style="endArrow=none;html=1;rounded=0;entryX=0.5;entryY=0;entryDx=0;entryDy=0;entryPerimeter=0;fillColor=#6d8764;strokeColor=#3A5431;strokeWidth=2;exitX=0.5;exitY=0.98;exitDx=0;exitDy=0;exitPerimeter=0;" edge="1" parent="1">
          <mxGeometry width="50" height="50" relative="1" as="geometry">
            <mxPoint x="790" y="1062" as="sourcePoint" />
            <mxPoint x="739" y="1144" as="targetPoint" />
          </mxGeometry>
        </mxCell>
        <mxCell id="hAfyrsxasU9BH3moIb1E-39" value="" style="ellipse;whiteSpace=wrap;html=1;" parent="1" vertex="1">
          <mxGeometry x="557" y="1032.5" width="13" height="15" as="geometry" />
        </mxCell>
        <mxCell id="muuk2Ey48-B4BVq4eK8P-5" value="" style="shape=mxgraph.cisco.switches.workgroup_switch;sketch=0;html=1;pointerEvents=1;dashed=0;fillColor=#036897;strokeColor=#ffffff;strokeWidth=2;verticalLabelPosition=bottom;verticalAlign=top;align=center;outlineConnect=0;" parent="1" vertex="1">
          <mxGeometry x="548" y="1164" width="101" height="50" as="geometry" />
        </mxCell>
        <mxCell id="muuk2Ey48-B4BVq4eK8P-16" value="pve-node-1" style="text;html=1;align=center;verticalAlign=middle;resizable=0;points=[];autosize=1;strokeColor=none;fillColor=none;" parent="1" vertex="1">
          <mxGeometry x="899.5" y="891" width="80" height="30" as="geometry" />
        </mxCell>
        <mxCell id="muuk2Ey48-B4BVq4eK8P-17" value="pve-node-2" style="text;html=1;align=center;verticalAlign=middle;resizable=0;points=[];autosize=1;strokeColor=none;fillColor=none;" parent="1" vertex="1">
          <mxGeometry x="899.5" y="983" width="80" height="30" as="geometry" />
        </mxCell>
        <mxCell id="muuk2Ey48-B4BVq4eK8P-18" value="pve-node-3" style="text;html=1;align=center;verticalAlign=middle;resizable=0;points=[];autosize=1;strokeColor=none;fillColor=none;" parent="1" vertex="1">
          <mxGeometry x="899.5" y="1068" width="80" height="30" as="geometry" />
        </mxCell>
        <mxCell id="muuk2Ey48-B4BVq4eK8P-19" value="" style="shape=mxgraph.cisco.servers.fileserver;sketch=0;html=1;pointerEvents=1;dashed=0;fillColor=#036897;strokeColor=#ffffff;strokeWidth=2;verticalLabelPosition=bottom;verticalAlign=top;align=center;outlineConnect=0;" parent="1" vertex="1">
          <mxGeometry x="818.5" y="1144" width="43" height="62" as="geometry" />
        </mxCell>
        <mxCell id="muuk2Ey48-B4BVq4eK8P-20" value="storage-node-2" style="text;html=1;align=center;verticalAlign=middle;resizable=0;points=[];autosize=1;strokeColor=none;fillColor=none;" parent="1" vertex="1">
          <mxGeometry x="790" y="1201" width="100" height="30" as="geometry" />
        </mxCell>
        <mxCell id="muuk2Ey48-B4BVq4eK8P-21" value="" style="shape=mxgraph.cisco.servers.fileserver;sketch=0;html=1;pointerEvents=1;dashed=0;fillColor=#036897;strokeColor=#ffffff;strokeWidth=2;verticalLabelPosition=bottom;verticalAlign=top;align=center;outlineConnect=0;" parent="1" vertex="1">
          <mxGeometry x="718.5" y="1144" width="43" height="62" as="geometry" />
        </mxCell>
        <mxCell id="muuk2Ey48-B4BVq4eK8P-22" value="storage-node-1" style="text;html=1;align=center;verticalAlign=middle;resizable=0;points=[];autosize=1;strokeColor=none;fillColor=none;" parent="1" vertex="1">
          <mxGeometry x="690" y="1201" width="100" height="30" as="geometry" />
        </mxCell>
        <mxCell id="muuk2Ey48-B4BVq4eK8P-23" value="" style="shape=mxgraph.cisco.computers_and_peripherals.terminal;sketch=0;html=1;pointerEvents=1;dashed=0;fillColor=#036897;strokeColor=#ffffff;strokeWidth=2;verticalLabelPosition=bottom;verticalAlign=top;align=center;outlineConnect=0;" parent="1" vertex="1">
          <mxGeometry x="487" y="1299" width="61" height="54" as="geometry" />
        </mxCell>
        <mxCell id="muuk2Ey48-B4BVq4eK8P-24" value="" style="shape=mxgraph.cisco.computers_and_peripherals.terminal;sketch=0;html=1;pointerEvents=1;dashed=0;fillColor=#036897;strokeColor=#ffffff;strokeWidth=2;verticalLabelPosition=bottom;verticalAlign=top;align=center;outlineConnect=0;" parent="1" vertex="1">
          <mxGeometry x="568" y="1299" width="61" height="54" as="geometry" />
        </mxCell>
        <mxCell id="muuk2Ey48-B4BVq4eK8P-25" value="" style="shape=mxgraph.cisco.computers_and_peripherals.terminal;sketch=0;html=1;pointerEvents=1;dashed=0;fillColor=#036897;strokeColor=#ffffff;strokeWidth=2;verticalLabelPosition=bottom;verticalAlign=top;align=center;outlineConnect=0;" parent="1" vertex="1">
          <mxGeometry x="649" y="1299" width="61" height="54" as="geometry" />
        </mxCell>
        <mxCell id="muuk2Ey48-B4BVq4eK8P-29" value="" style="shape=mxgraph.cisco.switches.workgroup_switch;sketch=0;html=1;pointerEvents=1;dashed=0;fillColor=#036897;strokeColor=#ffffff;strokeWidth=2;verticalLabelPosition=bottom;verticalAlign=top;align=center;outlineConnect=0;" parent="1" vertex="1">
          <mxGeometry x="275.5" y="1164" width="101" height="50" as="geometry" />
        </mxCell>
        <mxCell id="muuk2Ey48-B4BVq4eK8P-30" value="" style="shape=mxgraph.cisco.computers_and_peripherals.terminal;sketch=0;html=1;pointerEvents=1;dashed=0;fillColor=#036897;strokeColor=#ffffff;strokeWidth=2;verticalLabelPosition=bottom;verticalAlign=top;align=center;outlineConnect=0;" parent="1" vertex="1">
          <mxGeometry x="215" y="1299" width="61" height="54" as="geometry" />
        </mxCell>
        <mxCell id="muuk2Ey48-B4BVq4eK8P-31" value="" style="shape=mxgraph.cisco.computers_and_peripherals.terminal;sketch=0;html=1;pointerEvents=1;dashed=0;fillColor=#036897;strokeColor=#ffffff;strokeWidth=2;verticalLabelPosition=bottom;verticalAlign=top;align=center;outlineConnect=0;" parent="1" vertex="1">
          <mxGeometry x="296" y="1299" width="61" height="54" as="geometry" />
        </mxCell>
        <mxCell id="muuk2Ey48-B4BVq4eK8P-32" value="" style="shape=mxgraph.cisco.computers_and_peripherals.terminal;sketch=0;html=1;pointerEvents=1;dashed=0;fillColor=#036897;strokeColor=#ffffff;strokeWidth=2;verticalLabelPosition=bottom;verticalAlign=top;align=center;outlineConnect=0;" parent="1" vertex="1">
          <mxGeometry x="377" y="1299" width="61" height="54" as="geometry" />
        </mxCell>
        <mxCell id="muuk2Ey48-B4BVq4eK8P-33" value="2-cli-3" style="text;html=1;align=center;verticalAlign=middle;resizable=0;points=[];autosize=1;strokeColor=none;fillColor=none;" parent="1" vertex="1">
          <mxGeometry x="650" y="1353" width="60" height="30" as="geometry" />
        </mxCell>
        <mxCell id="muuk2Ey48-B4BVq4eK8P-34" value="1-cli-3" style="text;html=1;align=center;verticalAlign=middle;resizable=0;points=[];autosize=1;strokeColor=none;fillColor=none;" parent="1" vertex="1">
          <mxGeometry x="377" y="1353" width="60" height="30" as="geometry" />
        </mxCell>
        <mxCell id="muuk2Ey48-B4BVq4eK8P-35" value="2-cli-1" style="text;html=1;align=center;verticalAlign=middle;resizable=0;points=[];autosize=1;strokeColor=none;fillColor=none;" parent="1" vertex="1">
          <mxGeometry x="487" y="1353" width="60" height="30" as="geometry" />
        </mxCell>
        <mxCell id="muuk2Ey48-B4BVq4eK8P-36" value="2-cli-2" style="text;html=1;align=center;verticalAlign=middle;resizable=0;points=[];autosize=1;strokeColor=none;fillColor=none;" parent="1" vertex="1">
          <mxGeometry x="568.5" y="1353" width="60" height="30" as="geometry" />
        </mxCell>
        <mxCell id="muuk2Ey48-B4BVq4eK8P-37" value="1-cli-1" style="text;html=1;align=center;verticalAlign=middle;resizable=0;points=[];autosize=1;strokeColor=none;fillColor=none;" parent="1" vertex="1">
          <mxGeometry x="215" y="1353" width="60" height="30" as="geometry" />
        </mxCell>
        <mxCell id="muuk2Ey48-B4BVq4eK8P-38" value="1-cli-2" style="text;html=1;align=center;verticalAlign=middle;resizable=0;points=[];autosize=1;strokeColor=none;fillColor=none;" parent="1" vertex="1">
          <mxGeometry x="297" y="1353" width="60" height="30" as="geometry" />
        </mxCell>
        <mxCell id="muuk2Ey48-B4BVq4eK8P-42" value="" style="shape=mxgraph.cisco.switches.workgroup_switch;sketch=0;html=1;pointerEvents=1;dashed=0;fillColor=#036897;strokeColor=#ffffff;strokeWidth=2;verticalLabelPosition=bottom;verticalAlign=top;align=center;outlineConnect=0;" parent="1" vertex="1">
          <mxGeometry x="1" y="1164" width="101" height="50" as="geometry" />
        </mxCell>
        <mxCell id="muuk2Ey48-B4BVq4eK8P-43" value="" style="shape=mxgraph.cisco.computers_and_peripherals.terminal;sketch=0;html=1;pointerEvents=1;dashed=0;fillColor=#036897;strokeColor=#ffffff;strokeWidth=2;verticalLabelPosition=bottom;verticalAlign=top;align=center;outlineConnect=0;" parent="1" vertex="1">
          <mxGeometry x="-60" y="1299" width="61" height="54" as="geometry" />
        </mxCell>
        <mxCell id="muuk2Ey48-B4BVq4eK8P-44" value="" style="shape=mxgraph.cisco.computers_and_peripherals.terminal;sketch=0;html=1;pointerEvents=1;dashed=0;fillColor=#036897;strokeColor=#ffffff;strokeWidth=2;verticalLabelPosition=bottom;verticalAlign=top;align=center;outlineConnect=0;" parent="1" vertex="1">
          <mxGeometry x="21" y="1299" width="61" height="54" as="geometry" />
        </mxCell>
        <mxCell id="muuk2Ey48-B4BVq4eK8P-45" value="" style="shape=mxgraph.cisco.computers_and_peripherals.terminal;sketch=0;html=1;pointerEvents=1;dashed=0;fillColor=#036897;strokeColor=#ffffff;strokeWidth=2;verticalLabelPosition=bottom;verticalAlign=top;align=center;outlineConnect=0;" parent="1" vertex="1">
          <mxGeometry x="102" y="1299" width="61" height="54" as="geometry" />
        </mxCell>
        <mxCell id="muuk2Ey48-B4BVq4eK8P-46" value="cod-cli-3" style="text;html=1;align=center;verticalAlign=middle;resizable=0;points=[];autosize=1;strokeColor=none;fillColor=none;" parent="1" vertex="1">
          <mxGeometry x="97" y="1353" width="70" height="30" as="geometry" />
        </mxCell>
        <mxCell id="muuk2Ey48-B4BVq4eK8P-47" value="cod-cli-1" style="text;html=1;align=center;verticalAlign=middle;resizable=0;points=[];autosize=1;strokeColor=none;fillColor=none;" parent="1" vertex="1">
          <mxGeometry x="-65" y="1353" width="70" height="30" as="geometry" />
        </mxCell>
        <mxCell id="muuk2Ey48-B4BVq4eK8P-48" value="cod-cli-2" style="text;html=1;align=center;verticalAlign=middle;resizable=0;points=[];autosize=1;strokeColor=none;fillColor=none;" parent="1" vertex="1">
          <mxGeometry x="17" y="1353" width="70" height="30" as="geometry" />
        </mxCell>
        <mxCell id="muuk2Ey48-B4BVq4eK8P-49" value="" style="shape=mxgraph.cisco.computers_and_peripherals.terminal;sketch=0;html=1;pointerEvents=1;dashed=0;fillColor=#036897;strokeColor=#ffffff;strokeWidth=2;verticalLabelPosition=bottom;verticalAlign=top;align=center;outlineConnect=0;" parent="1" vertex="1">
          <mxGeometry x="-200" y="1070" width="61" height="54" as="geometry" />
        </mxCell>
        <mxCell id="muuk2Ey48-B4BVq4eK8P-50" value="network-admin-node" style="text;html=1;align=center;verticalAlign=middle;resizable=0;points=[];autosize=1;strokeColor=none;fillColor=none;" parent="1" vertex="1">
          <mxGeometry x="-230" y="1042" width="130" height="30" as="geometry" />
        </mxCell>
        <mxCell id="muuk2Ey48-B4BVq4eK8P-55" value="ald-node-1" style="text;html=1;align=center;verticalAlign=middle;resizable=0;points=[];autosize=1;strokeColor=none;fillColor=none;" parent="1" vertex="1">
          <mxGeometry x="711" y="845" width="80" height="30" as="geometry" />
        </mxCell>
        <mxCell id="muuk2Ey48-B4BVq4eK8P-56" value="ald-node-infra" style="text;html=1;align=center;verticalAlign=middle;resizable=0;points=[];autosize=1;strokeColor=none;fillColor=none;" parent="1" vertex="1">
          <mxGeometry x="781" y="845" width="100" height="30" as="geometry" />
        </mxCell>
        <mxCell id="muuk2Ey48-B4BVq4eK8P-59" value="" style="shape=mxgraph.cisco.switches.workgroup_switch;sketch=0;html=1;pointerEvents=1;dashed=0;fillColor=#036897;strokeColor=#ffffff;strokeWidth=2;verticalLabelPosition=bottom;verticalAlign=top;align=center;outlineConnect=0;" parent="1" vertex="1">
          <mxGeometry x="276" y="1013" width="101" height="50" as="geometry" />
        </mxCell>
        <mxCell id="muuk2Ey48-B4BVq4eK8P-66" value="cod-sw-1" style="text;html=1;align=center;verticalAlign=middle;resizable=0;points=[];autosize=1;strokeColor=none;fillColor=none;" parent="1" vertex="1">
          <mxGeometry x="5" y="1186" width="70" height="30" as="geometry" />
        </mxCell>
        <mxCell id="muuk2Ey48-B4BVq4eK8P-67" value="cli-sw-1" style="text;html=1;align=center;verticalAlign=middle;resizable=0;points=[];autosize=1;strokeColor=none;fillColor=none;" parent="1" vertex="1">
          <mxGeometry x="280.5" y="1186" width="60" height="30" as="geometry" />
        </mxCell>
        <mxCell id="muuk2Ey48-B4BVq4eK8P-68" value="cli-sw-2" style="text;html=1;align=center;verticalAlign=middle;resizable=0;points=[];autosize=1;strokeColor=none;fillColor=none;" parent="1" vertex="1">
          <mxGeometry x="553" y="1186" width="60" height="30" as="geometry" />
        </mxCell>
        <mxCell id="muuk2Ey48-B4BVq4eK8P-69" value="core-sw" style="text;html=1;align=center;verticalAlign=middle;resizable=0;points=[];autosize=1;strokeColor=none;fillColor=none;" parent="1" vertex="1">
          <mxGeometry x="276" y="1033" width="70" height="30" as="geometry" />
        </mxCell>
        <mxCell id="muuk2Ey48-B4BVq4eK8P-70" value="srv-sw" style="text;html=1;align=center;verticalAlign=middle;resizable=0;points=[];autosize=1;strokeColor=none;fillColor=none;" parent="1" vertex="1">
          <mxGeometry x="744.5" y="1033" width="60" height="30" as="geometry" />
        </mxCell>
        <mxCell id="muuk2Ey48-B4BVq4eK8P-71" value="" style="shape=mxgraph.cisco.computers_and_peripherals.terminal;sketch=0;html=1;pointerEvents=1;dashed=0;fillColor=#036897;strokeColor=#ffffff;strokeWidth=2;verticalLabelPosition=bottom;verticalAlign=top;align=center;outlineConnect=0;" parent="1" vertex="1">
          <mxGeometry x="-200" y="1162" width="61" height="54" as="geometry" />
        </mxCell>
        <mxCell id="muuk2Ey48-B4BVq4eK8P-72" value="hw-admin-node" style="text;html=1;align=center;verticalAlign=middle;resizable=0;points=[];autosize=1;strokeColor=none;fillColor=none;" parent="1" vertex="1">
          <mxGeometry x="-220" y="1135.5" width="110" height="30" as="geometry" />
        </mxCell>
        <mxCell id="muuk2Ey48-B4BVq4eK8P-73" value="" style="shape=mxgraph.cisco.computers_and_peripherals.terminal;sketch=0;html=1;pointerEvents=1;dashed=0;fillColor=#036897;strokeColor=#ffffff;strokeWidth=2;verticalLabelPosition=bottom;verticalAlign=top;align=center;outlineConnect=0;" parent="1" vertex="1">
          <mxGeometry x="-200" y="1259" width="61" height="54" as="geometry" />
        </mxCell>
        <mxCell id="muuk2Ey48-B4BVq4eK8P-74" value="main-admin-node" style="text;html=1;align=center;verticalAlign=middle;resizable=0;points=[];autosize=1;strokeColor=none;fillColor=none;" parent="1" vertex="1">
          <mxGeometry x="-225" y="1231" width="120" height="30" as="geometry" />
        </mxCell>
        <mxCell id="hAfyrsxasU9BH3moIb1E-4" value="" style="endArrow=none;html=1;rounded=0;fillColor=#d80073;strokeColor=#A50040;" parent="1" edge="1">
          <mxGeometry width="50" height="50" relative="1" as="geometry">
            <mxPoint x="860" y="1263" as="sourcePoint" />
            <mxPoint x="770" y="1263" as="targetPoint" />
          </mxGeometry>
        </mxCell>
        <mxCell id="hAfyrsxasU9BH3moIb1E-5" value="vlan 131 - сегмент репликации" style="text;html=1;align=center;verticalAlign=middle;resizable=0;points=[];autosize=1;strokeColor=none;fillColor=none;" parent="1" vertex="1">
          <mxGeometry x="858.5" y="1267" width="190" height="30" as="geometry" />
        </mxCell>
        <mxCell id="hAfyrsxasU9BH3moIb1E-6" value="" style="endArrow=none;html=1;rounded=0;fillColor=#e3c800;strokeColor=#B09500;" parent="1" edge="1">
          <mxGeometry width="50" height="50" relative="1" as="geometry">
            <mxPoint x="860" y="1283" as="sourcePoint" />
            <mxPoint x="770" y="1283" as="targetPoint" />
          </mxGeometry>
        </mxCell>
        <mxCell id="hAfyrsxasU9BH3moIb1E-7" value="vlan 130 - сегмент управления" style="text;html=1;align=center;verticalAlign=middle;resizable=0;points=[];autosize=1;strokeColor=none;fillColor=none;" parent="1" vertex="1">
          <mxGeometry x="858.5" y="1247" width="190" height="30" as="geometry" />
        </mxCell>
        <mxCell id="hAfyrsxasU9BH3moIb1E-9" value="" style="endArrow=none;dashed=1;html=1;rounded=0;" parent="1" edge="1">
          <mxGeometry width="50" height="50" relative="1" as="geometry">
            <mxPoint x="860" y="1303" as="sourcePoint" />
            <mxPoint x="770" y="1303" as="targetPoint" />
          </mxGeometry>
        </mxCell>
        <mxCell id="hAfyrsxasU9BH3moIb1E-10" value="trunk" style="text;html=1;align=center;verticalAlign=middle;resizable=0;points=[];autosize=1;strokeColor=none;fillColor=none;" parent="1" vertex="1">
          <mxGeometry x="857.5" y="1288" width="50" height="30" as="geometry" />
        </mxCell>
        <mxCell id="hAfyrsxasU9BH3moIb1E-11" value="" style="endArrow=none;html=1;rounded=0;entryX=0.98;entryY=0.5;entryDx=0;entryDy=0;entryPerimeter=0;exitX=0;exitY=0.5;exitDx=0;exitDy=0;exitPerimeter=0;fillColor=#6d8764;strokeColor=#3A5431;strokeWidth=2;" parent="1" edge="1">
          <mxGeometry width="50" height="50" relative="1" as="geometry">
            <mxPoint x="918.5" y="1118" as="sourcePoint" />
            <mxPoint x="838.48" y="1033" as="targetPoint" />
          </mxGeometry>
        </mxCell>
        <mxCell id="hAfyrsxasU9BH3moIb1E-12" value="" style="endArrow=none;html=1;rounded=0;entryX=0.98;entryY=0.5;entryDx=0;entryDy=0;entryPerimeter=0;exitX=0;exitY=0.5;exitDx=0;exitDy=0;exitPerimeter=0;fillColor=#6d8764;strokeColor=#3A5431;strokeWidth=2;" parent="1" edge="1">
          <mxGeometry width="50" height="50" relative="1" as="geometry">
            <mxPoint x="918" y="953" as="sourcePoint" />
            <mxPoint x="838.4799999999998" y="1038" as="targetPoint" />
          </mxGeometry>
        </mxCell>
        <mxCell id="hAfyrsxasU9BH3moIb1E-13" value="" style="endArrow=none;html=1;rounded=0;entryX=0.98;entryY=0.5;entryDx=0;entryDy=0;entryPerimeter=0;exitX=0;exitY=0.5;exitDx=0;exitDy=0;exitPerimeter=0;fillColor=#6d8764;strokeColor=#3A5431;strokeWidth=2;" parent="1" edge="1">
          <mxGeometry width="50" height="50" relative="1" as="geometry">
            <mxPoint x="918" y="1035" as="sourcePoint" />
            <mxPoint x="838.4799999999998" y="1035" as="targetPoint" />
          </mxGeometry>
        </mxCell>
        <mxCell id="hAfyrsxasU9BH3moIb1E-15" value="" style="endArrow=none;html=1;rounded=0;entryX=0.5;entryY=0;entryDx=0;entryDy=0;entryPerimeter=0;exitX=0.5;exitY=1;exitDx=0;exitDy=0;exitPerimeter=0;fillColor=#6d8764;strokeColor=#3A5431;strokeWidth=2;" parent="1" source="muuk2Ey48-B4BVq4eK8P-53" target="muuk2Ey48-B4BVq4eK8P-11" edge="1">
          <mxGeometry width="50" height="50" relative="1" as="geometry">
            <mxPoint x="841" y="947" as="sourcePoint" />
            <mxPoint x="800" y="1022" as="targetPoint" />
            <Array as="points" />
          </mxGeometry>
        </mxCell>
        <mxCell id="hAfyrsxasU9BH3moIb1E-16" value="" style="endArrow=none;html=1;rounded=0;entryX=0.5;entryY=0;entryDx=0;entryDy=0;entryPerimeter=0;fillColor=#6d8764;strokeColor=#3A5431;strokeWidth=2;exitX=0.5;exitY=1;exitDx=0;exitDy=0;exitPerimeter=0;" parent="1" source="muuk2Ey48-B4BVq4eK8P-52" target="muuk2Ey48-B4BVq4eK8P-11" edge="1">
          <mxGeometry width="50" height="50" relative="1" as="geometry">
            <mxPoint x="820" y="943" as="sourcePoint" />
            <mxPoint x="800" y="1022" as="targetPoint" />
            <Array as="points" />
          </mxGeometry>
        </mxCell>
        <mxCell id="hAfyrsxasU9BH3moIb1E-17" value="" style="endArrow=none;html=1;rounded=0;entryX=0;entryY=0.5;entryDx=0;entryDy=0;entryPerimeter=0;exitX=0.98;exitY=0.5;exitDx=0;exitDy=0;exitPerimeter=0;fillColor=#d80073;strokeColor=#A50040;" parent="1" edge="1">
          <mxGeometry width="50" height="50" relative="1" as="geometry">
            <mxPoint x="839.48" y="1033" as="sourcePoint" />
            <mxPoint x="919.0000000000002" y="948" as="targetPoint" />
          </mxGeometry>
        </mxCell>
        <mxCell id="hAfyrsxasU9BH3moIb1E-18" value="" style="endArrow=none;html=1;rounded=0;entryX=0;entryY=0.5;entryDx=0;entryDy=0;entryPerimeter=0;exitX=0.98;exitY=0.5;exitDx=0;exitDy=0;exitPerimeter=0;fillColor=#d80073;strokeColor=#A50040;" parent="1" edge="1">
          <mxGeometry width="50" height="50" relative="1" as="geometry">
            <mxPoint x="838.4799999999998" y="1038" as="sourcePoint" />
            <mxPoint x="918" y="1038" as="targetPoint" />
          </mxGeometry>
        </mxCell>
        <mxCell id="hAfyrsxasU9BH3moIb1E-19" value="" style="endArrow=none;html=1;rounded=0;entryX=0;entryY=0.5;entryDx=0;entryDy=0;entryPerimeter=0;exitX=0.98;exitY=0.5;exitDx=0;exitDy=0;exitPerimeter=0;fillColor=#d80073;strokeColor=#A50040;targetPerimeterSpacing=0;endSize=0;startSize=0;" parent="1" edge="1">
          <mxGeometry width="50" height="50" relative="1" as="geometry">
            <mxPoint x="837.48" y="1037" as="sourcePoint" />
            <mxPoint x="917" y="1121" as="targetPoint" />
          </mxGeometry>
        </mxCell>
        <mxCell id="hAfyrsxasU9BH3moIb1E-20" value="" style="endArrow=none;html=1;rounded=0;entryX=0.5;entryY=1;entryDx=0;entryDy=0;entryPerimeter=0;exitX=0.5;exitY=0;exitDx=0;exitDy=0;exitPerimeter=0;fillColor=#d80073;strokeColor=#A50040;" parent="1" edge="1">
          <mxGeometry width="50" height="50" relative="1" as="geometry">
            <mxPoint x="794.9999999999998" y="1012" as="sourcePoint" />
            <mxPoint x="835" y="936.0000000000002" as="targetPoint" />
          </mxGeometry>
        </mxCell>
        <mxCell id="hAfyrsxasU9BH3moIb1E-21" value="" style="endArrow=none;html=1;rounded=0;entryX=0.5;entryY=1;entryDx=0;entryDy=0;entryPerimeter=0;exitX=0.5;exitY=0;exitDx=0;exitDy=0;exitPerimeter=0;fillColor=#d80073;strokeColor=#A50040;" parent="1" edge="1">
          <mxGeometry width="50" height="50" relative="1" as="geometry">
            <mxPoint x="787" y="1012" as="sourcePoint" />
            <mxPoint x="748" y="936.9999999999999" as="targetPoint" />
          </mxGeometry>
        </mxCell>
        <mxCell id="hAfyrsxasU9BH3moIb1E-22" value="" style="endArrow=none;html=1;rounded=0;fillColor=#6d8764;strokeColor=#3A5431;strokeWidth=2;" parent="1" edge="1">
          <mxGeometry width="50" height="50" relative="1" as="geometry">
            <mxPoint x="860" y="1323" as="sourcePoint" />
            <mxPoint x="770" y="1323" as="targetPoint" />
          </mxGeometry>
        </mxCell>
        <mxCell id="hAfyrsxasU9BH3moIb1E-23" value="vlan 102 - серверный сегмент" style="text;html=1;align=center;verticalAlign=middle;resizable=0;points=[];autosize=1;strokeColor=none;fillColor=none;" parent="1" vertex="1">
          <mxGeometry x="856" y="1307" width="190" height="30" as="geometry" />
        </mxCell>
        <mxCell id="hAfyrsxasU9BH3moIb1E-24" value="" style="endArrow=none;html=1;rounded=0;fillColor=#60a917;strokeColor=#2D7600;" parent="1" edge="1">
          <mxGeometry width="50" height="50" relative="1" as="geometry">
            <mxPoint x="860.5" y="1343" as="sourcePoint" />
            <mxPoint x="770.5" y="1343" as="targetPoint" />
          </mxGeometry>
        </mxCell>
        <mxCell id="hAfyrsxasU9BH3moIb1E-25" value="" style="endArrow=none;html=1;rounded=0;fillColor=#0050ef;strokeColor=#001DBC;" parent="1" edge="1">
          <mxGeometry width="50" height="50" relative="1" as="geometry">
            <mxPoint x="860" y="1363" as="sourcePoint" />
            <mxPoint x="770" y="1363" as="targetPoint" />
          </mxGeometry>
        </mxCell>
        <mxCell id="hAfyrsxasU9BH3moIb1E-26" value="" style="endArrow=none;html=1;rounded=0;fillColor=#eeeeee;strokeColor=#36393d;" parent="1" edge="1">
          <mxGeometry width="50" height="50" relative="1" as="geometry">
            <mxPoint x="860" y="1383" as="sourcePoint" />
            <mxPoint x="770" y="1383" as="targetPoint" />
          </mxGeometry>
        </mxCell>
        <mxCell id="hAfyrsxasU9BH3moIb1E-27" value="vlan 103 - общий клиентский сегмент" style="text;html=1;align=center;verticalAlign=middle;resizable=0;points=[];autosize=1;strokeColor=none;fillColor=none;" parent="1" vertex="1">
          <mxGeometry x="857" y="1327" width="230" height="30" as="geometry" />
        </mxCell>
        <mxCell id="hAfyrsxasU9BH3moIb1E-28" value="vlan 100 - сегмент администраторов" style="text;html=1;align=center;verticalAlign=middle;resizable=0;points=[];autosize=1;strokeColor=none;fillColor=none;" parent="1" vertex="1">
          <mxGeometry x="854" y="1347" width="230" height="30" as="geometry" />
        </mxCell>
        <mxCell id="hAfyrsxasU9BH3moIb1E-29" value="vlan 101 - сегмент погромистов" style="text;html=1;align=center;verticalAlign=middle;resizable=0;points=[];autosize=1;strokeColor=none;fillColor=none;" parent="1" vertex="1">
          <mxGeometry x="856" y="1367" width="200" height="30" as="geometry" />
        </mxCell>
        <mxCell id="hAfyrsxasU9BH3moIb1E-30" value="" style="endArrow=none;html=1;rounded=0;fillColor=#60a917;strokeColor=#2D7600;exitX=0.5;exitY=0.98;exitDx=0;exitDy=0;exitPerimeter=0;entryX=0.5;entryY=0;entryDx=0;entryDy=0;entryPerimeter=0;" parent="1" source="muuk2Ey48-B4BVq4eK8P-5" target="muuk2Ey48-B4BVq4eK8P-23" edge="1">
          <mxGeometry width="50" height="50" relative="1" as="geometry">
            <mxPoint x="560" y="1273" as="sourcePoint" />
            <mxPoint x="470" y="1273" as="targetPoint" />
          </mxGeometry>
        </mxCell>
        <mxCell id="hAfyrsxasU9BH3moIb1E-31" value="" style="endArrow=none;html=1;rounded=0;fillColor=#60a917;strokeColor=#2D7600;exitX=0.5;exitY=0.98;exitDx=0;exitDy=0;exitPerimeter=0;entryX=0.5;entryY=0;entryDx=0;entryDy=0;entryPerimeter=0;" parent="1" source="muuk2Ey48-B4BVq4eK8P-5" target="muuk2Ey48-B4BVq4eK8P-24" edge="1">
          <mxGeometry width="50" height="50" relative="1" as="geometry">
            <mxPoint x="609" y="1223" as="sourcePoint" />
            <mxPoint x="528" y="1309" as="targetPoint" />
          </mxGeometry>
        </mxCell>
        <mxCell id="hAfyrsxasU9BH3moIb1E-32" value="" style="endArrow=none;html=1;rounded=0;fillColor=#60a917;strokeColor=#2D7600;exitX=0.5;exitY=0.98;exitDx=0;exitDy=0;exitPerimeter=0;entryX=0.5;entryY=0;entryDx=0;entryDy=0;entryPerimeter=0;" parent="1" source="muuk2Ey48-B4BVq4eK8P-5" target="muuk2Ey48-B4BVq4eK8P-25" edge="1">
          <mxGeometry width="50" height="50" relative="1" as="geometry">
            <mxPoint x="609" y="1223" as="sourcePoint" />
            <mxPoint x="609" y="1309" as="targetPoint" />
          </mxGeometry>
        </mxCell>
        <mxCell id="hAfyrsxasU9BH3moIb1E-33" value="" style="endArrow=none;dashed=1;html=1;rounded=0;exitX=0.5;exitY=0.98;exitDx=0;exitDy=0;exitPerimeter=0;entryX=0.5;entryY=0;entryDx=0;entryDy=0;entryPerimeter=0;" parent="1" source="muuk2Ey48-B4BVq4eK8P-59" target="muuk2Ey48-B4BVq4eK8P-42" edge="1">
          <mxGeometry width="50" height="50" relative="1" as="geometry">
            <mxPoint x="201.5" y="1091" as="sourcePoint" />
            <mxPoint x="111.5" y="1091" as="targetPoint" />
          </mxGeometry>
        </mxCell>
        <mxCell id="hAfyrsxasU9BH3moIb1E-34" value="" style="endArrow=none;dashed=1;html=1;rounded=0;exitX=0.5;exitY=0.98;exitDx=0;exitDy=0;exitPerimeter=0;entryX=0.5;entryY=0;entryDx=0;entryDy=0;entryPerimeter=0;" parent="1" source="muuk2Ey48-B4BVq4eK8P-59" target="muuk2Ey48-B4BVq4eK8P-29" edge="1">
          <mxGeometry width="50" height="50" relative="1" as="geometry">
            <mxPoint x="336" y="1072" as="sourcePoint" />
            <mxPoint x="62" y="1174" as="targetPoint" />
          </mxGeometry>
        </mxCell>
        <mxCell id="hAfyrsxasU9BH3moIb1E-35" value="" style="endArrow=none;dashed=1;html=1;rounded=0;exitX=0.5;exitY=0.98;exitDx=0;exitDy=0;exitPerimeter=0;entryX=0.5;entryY=0;entryDx=0;entryDy=0;entryPerimeter=0;" parent="1" source="muuk2Ey48-B4BVq4eK8P-59" target="muuk2Ey48-B4BVq4eK8P-5" edge="1">
          <mxGeometry width="50" height="50" relative="1" as="geometry">
            <mxPoint x="420" y="1103" as="sourcePoint" />
            <mxPoint x="420" y="1205" as="targetPoint" />
          </mxGeometry>
        </mxCell>
        <mxCell id="hAfyrsxasU9BH3moIb1E-36" value="" style="endArrow=none;dashed=1;html=1;rounded=0;exitX=0.98;exitY=0.5;exitDx=0;exitDy=0;exitPerimeter=0;entryX=0;entryY=0.5;entryDx=0;entryDy=0;entryPerimeter=0;" parent="1" edge="1">
          <mxGeometry width="50" height="50" relative="1" as="geometry">
            <mxPoint x="374.98" y="1043" as="sourcePoint" />
            <mxPoint x="739.5" y="1042" as="targetPoint" />
          </mxGeometry>
        </mxCell>
        <mxCell id="hAfyrsxasU9BH3moIb1E-37" value="" style="endArrow=none;dashed=1;html=1;rounded=0;exitX=0.98;exitY=0.5;exitDx=0;exitDy=0;exitPerimeter=0;entryX=0;entryY=0.5;entryDx=0;entryDy=0;entryPerimeter=0;" parent="1" source="muuk2Ey48-B4BVq4eK8P-59" edge="1">
          <mxGeometry width="50" height="50" relative="1" as="geometry">
            <mxPoint x="461.5" y="1037" as="sourcePoint" />
            <mxPoint x="740.5" y="1036" as="targetPoint" />
          </mxGeometry>
        </mxCell>
        <mxCell id="hAfyrsxasU9BH3moIb1E-41" value="" style="endArrow=none;dashed=1;html=1;rounded=0;exitX=0.5;exitY=0;exitDx=0;exitDy=0;exitPerimeter=0;entryX=0.5;entryY=1;entryDx=0;entryDy=0;entryPerimeter=0;" parent="1" source="muuk2Ey48-B4BVq4eK8P-59" edge="1">
          <mxGeometry width="50" height="50" relative="1" as="geometry">
            <mxPoint x="121.5" y="983" as="sourcePoint" />
            <mxPoint x="411.5" y="905" as="targetPoint" />
          </mxGeometry>
        </mxCell>
        <mxCell id="hAfyrsxasU9BH3moIb1E-42" value="" style="endArrow=none;dashed=1;html=1;rounded=0;exitX=0.5;exitY=0;exitDx=0;exitDy=0;exitPerimeter=0;entryX=0.5;entryY=1;entryDx=0;entryDy=0;entryPerimeter=0;" parent="1" source="muuk2Ey48-B4BVq4eK8P-59" edge="1">
          <mxGeometry width="50" height="50" relative="1" as="geometry">
            <mxPoint x="220" y="1021" as="sourcePoint" />
            <mxPoint x="240.50000000000023" y="905" as="targetPoint" />
          </mxGeometry>
        </mxCell>
        <mxCell id="hAfyrsxasU9BH3moIb1E-43" value="" style="endArrow=none;html=1;rounded=0;fillColor=#60a917;strokeColor=#2D7600;exitX=0.5;exitY=0.98;exitDx=0;exitDy=0;exitPerimeter=0;entryX=0.5;entryY=0;entryDx=0;entryDy=0;entryPerimeter=0;" parent="1" source="muuk2Ey48-B4BVq4eK8P-29" target="muuk2Ey48-B4BVq4eK8P-30" edge="1">
          <mxGeometry width="50" height="50" relative="1" as="geometry">
            <mxPoint x="270" y="1253" as="sourcePoint" />
            <mxPoint x="189" y="1339" as="targetPoint" />
          </mxGeometry>
        </mxCell>
        <mxCell id="hAfyrsxasU9BH3moIb1E-44" value="" style="endArrow=none;html=1;rounded=0;fillColor=#60a917;strokeColor=#2D7600;exitX=0.5;exitY=0.98;exitDx=0;exitDy=0;exitPerimeter=0;entryX=0.5;entryY=0;entryDx=0;entryDy=0;entryPerimeter=0;" parent="1" source="muuk2Ey48-B4BVq4eK8P-29" target="muuk2Ey48-B4BVq4eK8P-31" edge="1">
          <mxGeometry width="50" height="50" relative="1" as="geometry">
            <mxPoint x="340" y="1263" as="sourcePoint" />
            <mxPoint x="255" y="1349" as="targetPoint" />
          </mxGeometry>
        </mxCell>
        <mxCell id="hAfyrsxasU9BH3moIb1E-45" value="" style="endArrow=none;html=1;rounded=0;fillColor=#60a917;strokeColor=#2D7600;exitX=0.5;exitY=0.98;exitDx=0;exitDy=0;exitPerimeter=0;entryX=0.5;entryY=0;entryDx=0;entryDy=0;entryPerimeter=0;" parent="1" source="muuk2Ey48-B4BVq4eK8P-29" target="muuk2Ey48-B4BVq4eK8P-32" edge="1">
          <mxGeometry width="50" height="50" relative="1" as="geometry">
            <mxPoint x="370" y="1243" as="sourcePoint" />
            <mxPoint x="370" y="1329" as="targetPoint" />
          </mxGeometry>
        </mxCell>
        <mxCell id="hAfyrsxasU9BH3moIb1E-46" value="" style="endArrow=none;html=1;rounded=0;fillColor=#0050ef;strokeColor=#001DBC;exitX=0;exitY=0.5;exitDx=0;exitDy=0;exitPerimeter=0;entryX=1;entryY=0.5;entryDx=0;entryDy=0;entryPerimeter=0;" parent="1" source="muuk2Ey48-B4BVq4eK8P-42" target="muuk2Ey48-B4BVq4eK8P-49" edge="1">
          <mxGeometry width="50" height="50" relative="1" as="geometry">
            <mxPoint x="-80" y="1123" as="sourcePoint" />
            <mxPoint x="-170" y="1123" as="targetPoint" />
          </mxGeometry>
        </mxCell>
        <mxCell id="hAfyrsxasU9BH3moIb1E-47" value="" style="endArrow=none;html=1;rounded=0;fillColor=#0050ef;strokeColor=#001DBC;exitX=0;exitY=0.5;exitDx=0;exitDy=0;exitPerimeter=0;entryX=1;entryY=0.5;entryDx=0;entryDy=0;entryPerimeter=0;" parent="1" source="muuk2Ey48-B4BVq4eK8P-42" target="muuk2Ey48-B4BVq4eK8P-71" edge="1">
          <mxGeometry width="50" height="50" relative="1" as="geometry">
            <mxPoint x="-100" y="1193" as="sourcePoint" />
            <mxPoint x="-240" y="1101" as="targetPoint" />
          </mxGeometry>
        </mxCell>
        <mxCell id="hAfyrsxasU9BH3moIb1E-48" value="" style="endArrow=none;html=1;rounded=0;fillColor=#0050ef;strokeColor=#001DBC;exitX=0;exitY=0.5;exitDx=0;exitDy=0;exitPerimeter=0;entryX=1;entryY=0.5;entryDx=0;entryDy=0;entryPerimeter=0;" parent="1" source="muuk2Ey48-B4BVq4eK8P-42" target="muuk2Ey48-B4BVq4eK8P-73" edge="1">
          <mxGeometry width="50" height="50" relative="1" as="geometry">
            <mxPoint x="-80" y="1223" as="sourcePoint" />
            <mxPoint x="-220" y="1131" as="targetPoint" />
          </mxGeometry>
        </mxCell>
        <mxCell id="hAfyrsxasU9BH3moIb1E-49" value="" style="endArrow=none;html=1;rounded=0;fillColor=#eeeeee;strokeColor=#36393d;exitX=0.5;exitY=0.98;exitDx=0;exitDy=0;exitPerimeter=0;entryX=0.5;entryY=0;entryDx=0;entryDy=0;entryPerimeter=0;" parent="1" source="muuk2Ey48-B4BVq4eK8P-42" target="muuk2Ey48-B4BVq4eK8P-43" edge="1">
          <mxGeometry width="50" height="50" relative="1" as="geometry">
            <mxPoint x="20" y="1263" as="sourcePoint" />
            <mxPoint x="-70" y="1263" as="targetPoint" />
          </mxGeometry>
        </mxCell>
        <mxCell id="hAfyrsxasU9BH3moIb1E-50" value="" style="endArrow=none;html=1;rounded=0;fillColor=#eeeeee;strokeColor=#36393d;exitX=0.5;exitY=0.98;exitDx=0;exitDy=0;exitPerimeter=0;entryX=0.5;entryY=0;entryDx=0;entryDy=0;entryPerimeter=0;" parent="1" source="muuk2Ey48-B4BVq4eK8P-42" target="muuk2Ey48-B4BVq4eK8P-44" edge="1">
          <mxGeometry width="50" height="50" relative="1" as="geometry">
            <mxPoint x="40" y="1263" as="sourcePoint" />
            <mxPoint x="-50" y="1263" as="targetPoint" />
          </mxGeometry>
        </mxCell>
        <mxCell id="hAfyrsxasU9BH3moIb1E-51" value="" style="endArrow=none;html=1;rounded=0;fillColor=#eeeeee;strokeColor=#36393d;exitX=0.5;exitY=0.98;exitDx=0;exitDy=0;exitPerimeter=0;entryX=0.5;entryY=0;entryDx=0;entryDy=0;entryPerimeter=0;" parent="1" source="muuk2Ey48-B4BVq4eK8P-42" target="muuk2Ey48-B4BVq4eK8P-45" edge="1">
          <mxGeometry width="50" height="50" relative="1" as="geometry">
            <mxPoint x="90" y="1243" as="sourcePoint" />
            <mxPoint y="1243" as="targetPoint" />
          </mxGeometry>
        </mxCell>
        <mxCell id="hAfyrsxasU9BH3moIb1E-87" value="" style="shape=mxgraph.cisco.routers.router;sketch=0;html=1;pointerEvents=1;dashed=0;fillColor=#036897;strokeColor=#ffffff;strokeWidth=2;verticalLabelPosition=bottom;verticalAlign=top;align=center;outlineConnect=0;" parent="1" vertex="1">
          <mxGeometry x="13" y="633" width="78" height="53" as="geometry" />
        </mxCell>
        <mxCell id="hAfyrsxasU9BH3moIb1E-88" value="other-1-router-1" style="text;html=1;align=center;verticalAlign=middle;resizable=0;points=[];autosize=1;strokeColor=none;fillColor=none;" parent="1" vertex="1">
          <mxGeometry x="-3" y="603" width="110" height="30" as="geometry" />
        </mxCell>
        <mxCell id="hAfyrsxasU9BH3moIb1E-90" value="" style="shape=mxgraph.cisco.routers.router;sketch=0;html=1;pointerEvents=1;dashed=0;fillColor=#036897;strokeColor=#ffffff;strokeWidth=2;verticalLabelPosition=bottom;verticalAlign=top;align=center;outlineConnect=0;" parent="1" vertex="1">
          <mxGeometry x="17" y="733" width="78" height="53" as="geometry" />
        </mxCell>
        <mxCell id="hAfyrsxasU9BH3moIb1E-91" value="main-2-router-1" style="text;html=1;align=center;verticalAlign=middle;resizable=0;points=[];autosize=1;strokeColor=none;fillColor=none;" parent="1" vertex="1">
          <mxGeometry x="1" y="703" width="110" height="30" as="geometry" />
        </mxCell>
        <mxCell id="hAfyrsxasU9BH3moIb1E-92" value="other-1-lan" style="ellipse;shape=cloud;whiteSpace=wrap;html=1;" parent="1" vertex="1">
          <mxGeometry x="-144" y="611.5" width="120" height="80" as="geometry" />
        </mxCell>
        <mxCell id="hAfyrsxasU9BH3moIb1E-93" value="main-2-lan" style="ellipse;shape=cloud;whiteSpace=wrap;html=1;" parent="1" vertex="1">
          <mxGeometry x="-144" y="711.5" width="120" height="80" as="geometry" />
        </mxCell>
        <mxCell id="hAfyrsxasU9BH3moIb1E-102" value="" style="endArrow=none;html=1;rounded=0;entryX=0.13;entryY=0.77;entryDx=0;entryDy=0;entryPerimeter=0;exitX=1;exitY=0.5;exitDx=0;exitDy=0;exitPerimeter=0;" parent="1" source="hAfyrsxasU9BH3moIb1E-90" target="hAfyrsxasU9BH3moIb1E-89" edge="1">
          <mxGeometry width="50" height="50" relative="1" as="geometry">
            <mxPoint x="133.5" y="829" as="sourcePoint" />
            <mxPoint x="175.5" y="686" as="targetPoint" />
            <Array as="points">
              <mxPoint x="150" y="723" />
            </Array>
          </mxGeometry>
        </mxCell>
        <mxCell id="hAfyrsxasU9BH3moIb1E-103" value="" style="endArrow=none;html=1;rounded=0;entryX=0.165;entryY=0.28;entryDx=0;entryDy=0;entryPerimeter=0;exitX=1;exitY=0.5;exitDx=0;exitDy=0;exitPerimeter=0;" parent="1" source="hAfyrsxasU9BH3moIb1E-87" target="hAfyrsxasU9BH3moIb1E-89" edge="1">
          <mxGeometry width="50" height="50" relative="1" as="geometry">
            <mxPoint x="130" y="653" as="sourcePoint" />
            <mxPoint x="317" y="615" as="targetPoint" />
            <Array as="points">
              <mxPoint x="150" y="683" />
            </Array>
          </mxGeometry>
        </mxCell>
        <mxCell id="hAfyrsxasU9BH3moIb1E-105" value="" style="shape=mxgraph.cisco.computers_and_peripherals.terminal;sketch=0;html=1;pointerEvents=1;dashed=0;fillColor=#036897;strokeColor=#ffffff;strokeWidth=2;verticalLabelPosition=bottom;verticalAlign=top;align=center;outlineConnect=0;" parent="1" vertex="1">
          <mxGeometry x="215.5" y="490" width="61" height="54" as="geometry" />
        </mxCell>
        <mxCell id="hAfyrsxasU9BH3moIb1E-107" value="outter-client-1" style="text;html=1;align=center;verticalAlign=middle;resizable=0;points=[];autosize=1;strokeColor=none;fillColor=none;" parent="1" vertex="1">
          <mxGeometry x="205.5" y="460" width="100" height="30" as="geometry" />
        </mxCell>
        <mxCell id="hAfyrsxasU9BH3moIb1E-108" value="" style="shape=mxgraph.cisco.computers_and_peripherals.terminal;sketch=0;html=1;pointerEvents=1;dashed=0;fillColor=#036897;strokeColor=#ffffff;strokeWidth=2;verticalLabelPosition=bottom;verticalAlign=top;align=center;outlineConnect=0;" parent="1" vertex="1">
          <mxGeometry x="299.5" y="490" width="61" height="54" as="geometry" />
        </mxCell>
        <mxCell id="hAfyrsxasU9BH3moIb1E-109" value="outter-client-2" style="text;html=1;align=center;verticalAlign=middle;resizable=0;points=[];autosize=1;strokeColor=none;fillColor=none;" parent="1" vertex="1">
          <mxGeometry x="289" y="460" width="100" height="30" as="geometry" />
        </mxCell>
        <mxCell id="hAfyrsxasU9BH3moIb1E-110" value="" style="shape=mxgraph.cisco.computers_and_peripherals.terminal;sketch=0;html=1;pointerEvents=1;dashed=0;fillColor=#036897;strokeColor=#ffffff;strokeWidth=2;verticalLabelPosition=bottom;verticalAlign=top;align=center;outlineConnect=0;" parent="1" vertex="1">
          <mxGeometry x="388.5" y="490" width="61" height="54" as="geometry" />
        </mxCell>
        <mxCell id="hAfyrsxasU9BH3moIb1E-111" value="outter-client-3" style="text;html=1;align=center;verticalAlign=middle;resizable=0;points=[];autosize=1;strokeColor=none;fillColor=none;" parent="1" vertex="1">
          <mxGeometry x="380.5" y="460" width="100" height="30" as="geometry" />
        </mxCell>
        <mxCell id="hAfyrsxasU9BH3moIb1E-112" value="" style="endArrow=none;html=1;rounded=0;entryX=0.533;entryY=0.413;entryDx=0;entryDy=0;entryPerimeter=0;exitX=0.5;exitY=1;exitDx=0;exitDy=0;exitPerimeter=0;" parent="1" source="hAfyrsxasU9BH3moIb1E-105" target="hAfyrsxasU9BH3moIb1E-89" edge="1">
          <mxGeometry width="50" height="50" relative="1" as="geometry">
            <mxPoint x="240" y="573" as="sourcePoint" />
            <mxPoint x="435" y="595" as="targetPoint" />
            <Array as="points">
              <mxPoint x="300" y="593" />
            </Array>
          </mxGeometry>
        </mxCell>
        <mxCell id="hAfyrsxasU9BH3moIb1E-113" value="" style="endArrow=none;html=1;rounded=0;exitX=0.5;exitY=1;exitDx=0;exitDy=0;exitPerimeter=0;" parent="1" source="hAfyrsxasU9BH3moIb1E-108" edge="1">
          <mxGeometry width="50" height="50" relative="1" as="geometry">
            <mxPoint x="340" y="573" as="sourcePoint" />
            <mxPoint x="330" y="693" as="targetPoint" />
            <Array as="points">
              <mxPoint x="330" y="613" />
            </Array>
          </mxGeometry>
        </mxCell>
        <mxCell id="hAfyrsxasU9BH3moIb1E-114" value="" style="endArrow=none;html=1;rounded=0;exitX=0.5;exitY=1;exitDx=0;exitDy=0;exitPerimeter=0;" parent="1" source="hAfyrsxasU9BH3moIb1E-110" edge="1">
          <mxGeometry width="50" height="50" relative="1" as="geometry">
            <mxPoint x="370" y="583" as="sourcePoint" />
            <mxPoint x="330" y="693" as="targetPoint" />
            <Array as="points">
              <mxPoint x="360" y="593" />
            </Array>
          </mxGeometry>
        </mxCell>
        <mxCell id="hAfyrsxasU9BH3moIb1E-89" value="&lt;font style=&quot;font-size: 7px;&quot;&gt;OpenVPN&lt;/font&gt;" style="ellipse;shape=cloud;whiteSpace=wrap;html=1;" parent="1" vertex="1">
          <mxGeometry x="266" y="660" width="120" height="80" as="geometry" />
        </mxCell>
        <mxCell id="9QaCa96sRWtHc6JSc8Kn-3" value="" style="endArrow=none;html=1;rounded=0;exitX=0;exitY=0.5;exitDx=0;exitDy=0;exitPerimeter=0;fillColor=#e3c800;strokeColor=#B09500;entryX=0.98;entryY=0.5;entryDx=0;entryDy=0;entryPerimeter=0;" edge="1" parent="1">
          <mxGeometry width="50" height="50" relative="1" as="geometry">
            <mxPoint x="919" y="1114" as="sourcePoint" />
            <mxPoint x="839.48" y="1029" as="targetPoint" />
          </mxGeometry>
        </mxCell>
        <mxCell id="muuk2Ey48-B4BVq4eK8P-13" value="" style="shape=mxgraph.cisco.servers.fileserver;sketch=0;html=1;pointerEvents=1;dashed=0;fillColor=#036897;strokeColor=#ffffff;strokeWidth=2;verticalLabelPosition=bottom;verticalAlign=top;align=center;outlineConnect=0;" parent="1" vertex="1">
          <mxGeometry x="918" y="1091" width="43" height="62" as="geometry" />
        </mxCell>
        <mxCell id="muuk2Ey48-B4BVq4eK8P-12" value="" style="shape=mxgraph.cisco.servers.fileserver;sketch=0;html=1;pointerEvents=1;dashed=0;fillColor=#036897;strokeColor=#ffffff;strokeWidth=2;verticalLabelPosition=bottom;verticalAlign=top;align=center;outlineConnect=0;" parent="1" vertex="1">
          <mxGeometry x="918" y="1006" width="43" height="62" as="geometry" />
        </mxCell>
        <mxCell id="9QaCa96sRWtHc6JSc8Kn-4" value="" style="endArrow=none;html=1;rounded=0;exitX=0;exitY=0.5;exitDx=0;exitDy=0;exitPerimeter=0;fillColor=#e3c800;strokeColor=#B09500;entryX=0.98;entryY=0.5;entryDx=0;entryDy=0;entryPerimeter=0;" edge="1" parent="1">
          <mxGeometry width="50" height="50" relative="1" as="geometry">
            <mxPoint x="917" y="1031.94" as="sourcePoint" />
            <mxPoint x="837.48" y="1031.94" as="targetPoint" />
          </mxGeometry>
        </mxCell>
        <mxCell id="muuk2Ey48-B4BVq4eK8P-14" value="" style="shape=mxgraph.cisco.servers.fileserver;sketch=0;html=1;pointerEvents=1;dashed=0;fillColor=#036897;strokeColor=#ffffff;strokeWidth=2;verticalLabelPosition=bottom;verticalAlign=top;align=center;outlineConnect=0;" parent="1" vertex="1">
          <mxGeometry x="918" y="921" width="43" height="62" as="geometry" />
        </mxCell>
        <mxCell id="muuk2Ey48-B4BVq4eK8P-11" value="" style="shape=mxgraph.cisco.switches.workgroup_switch;sketch=0;html=1;pointerEvents=1;dashed=0;fillColor=#036897;strokeColor=#ffffff;strokeWidth=2;verticalLabelPosition=bottom;verticalAlign=top;align=center;outlineConnect=0;" parent="1" vertex="1">
          <mxGeometry x="740.5" y="1013" width="101" height="50" as="geometry" />
        </mxCell>
        <mxCell id="muuk2Ey48-B4BVq4eK8P-52" value="" style="shape=mxgraph.cisco.servers.fileserver;sketch=0;html=1;pointerEvents=1;dashed=0;fillColor=#036897;strokeColor=#ffffff;strokeWidth=2;verticalLabelPosition=bottom;verticalAlign=top;align=center;outlineConnect=0;" parent="1" vertex="1">
          <mxGeometry x="809.5" y="875" width="43" height="62" as="geometry" />
        </mxCell>
        <mxCell id="muuk2Ey48-B4BVq4eK8P-53" value="" style="shape=mxgraph.cisco.servers.fileserver;sketch=0;html=1;pointerEvents=1;dashed=0;fillColor=#036897;strokeColor=#ffffff;strokeWidth=2;verticalLabelPosition=bottom;verticalAlign=top;align=center;outlineConnect=0;" parent="1" vertex="1">
          <mxGeometry x="729.5" y="875" width="43" height="62" as="geometry" />
        </mxCell>
        <mxCell id="9QaCa96sRWtHc6JSc8Kn-6" value="" style="fontColor=#0066CC;verticalAlign=top;verticalLabelPosition=bottom;labelPosition=center;align=center;html=1;outlineConnect=0;fillColor=#CCCCCC;strokeColor=#6881B3;gradientColor=none;gradientDirection=north;strokeWidth=2;shape=mxgraph.networks.firewall;" vertex="1" parent="1">
          <mxGeometry x="218" y="860" width="50" height="50" as="geometry" />
        </mxCell>
        <mxCell id="9QaCa96sRWtHc6JSc8Kn-7" value="ideco-cluster&lt;span style=&quot;background-color: initial;&quot;&gt;-1&lt;/span&gt;" style="text;html=1;align=center;verticalAlign=middle;resizable=0;points=[];autosize=1;strokeColor=none;fillColor=none;" vertex="1" parent="1">
          <mxGeometry x="193" y="834" width="100" height="30" as="geometry" />
        </mxCell>
        <mxCell id="9QaCa96sRWtHc6JSc8Kn-10" value="" style="fontColor=#0066CC;verticalAlign=top;verticalLabelPosition=bottom;labelPosition=center;align=center;html=1;outlineConnect=0;fillColor=#CCCCCC;strokeColor=#6881B3;gradientColor=none;gradientDirection=north;strokeWidth=2;shape=mxgraph.networks.firewall;" vertex="1" parent="1">
          <mxGeometry x="389" y="860" width="50" height="50" as="geometry" />
        </mxCell>
        <mxCell id="9QaCa96sRWtHc6JSc8Kn-11" value="ideco-cluster-2" style="text;html=1;align=center;verticalAlign=middle;resizable=0;points=[];autosize=1;strokeColor=none;fillColor=none;" vertex="1" parent="1">
          <mxGeometry x="364" y="834" width="100" height="30" as="geometry" />
        </mxCell>
        <mxCell id="9QaCa96sRWtHc6JSc8Kn-12" value="" style="endArrow=none;html=1;rounded=0;entryX=0.43;entryY=0.924;entryDx=0;entryDy=0;entryPerimeter=0;exitX=1;exitY=0.5;exitDx=0;exitDy=0;exitPerimeter=0;" edge="1" parent="1" source="9QaCa96sRWtHc6JSc8Kn-6" target="hAfyrsxasU9BH3moIb1E-89">
          <mxGeometry width="50" height="50" relative="1" as="geometry">
            <mxPoint x="262.5" y="834" as="sourcePoint" />
            <mxPoint x="449.5" y="796" as="targetPoint" />
            <Array as="points">
              <mxPoint x="310" y="880" />
            </Array>
          </mxGeometry>
        </mxCell>
        <mxCell id="9QaCa96sRWtHc6JSc8Kn-14" value="" style="endArrow=none;html=1;rounded=0;entryX=0.622;entryY=0.94;entryDx=0;entryDy=0;entryPerimeter=0;exitX=0;exitY=0.5;exitDx=0;exitDy=0;exitPerimeter=0;" edge="1" parent="1" source="9QaCa96sRWtHc6JSc8Kn-10" target="hAfyrsxasU9BH3moIb1E-89">
          <mxGeometry width="50" height="50" relative="1" as="geometry">
            <mxPoint x="350" y="850" as="sourcePoint" />
            <mxPoint x="400" y="699" as="targetPoint" />
            <Array as="points">
              <mxPoint x="350" y="880" />
            </Array>
          </mxGeometry>
        </mxCell>
        <mxCell id="9QaCa96sRWtHc6JSc8Kn-19" value="srv-sw" style="text;html=1;align=center;verticalAlign=middle;resizable=0;points=[];autosize=1;strokeColor=none;fillColor=none;" vertex="1" parent="1">
          <mxGeometry x="747.5" y="1035" width="60" height="30" as="geometry" />
        </mxCell>
        <mxCell id="9QaCa96sRWtHc6JSc8Kn-47" value="mon-node" style="text;html=1;align=center;verticalAlign=middle;resizable=0;points=[];autosize=1;strokeColor=none;fillColor=none;" vertex="1" parent="1">
          <mxGeometry x="632.5" y="845" width="80" height="30" as="geometry" />
        </mxCell>
        <mxCell id="9QaCa96sRWtHc6JSc8Kn-48" value="" style="shape=mxgraph.cisco.servers.fileserver;sketch=0;html=1;pointerEvents=1;dashed=0;fillColor=#036897;strokeColor=#ffffff;strokeWidth=2;verticalLabelPosition=bottom;verticalAlign=top;align=center;outlineConnect=0;" vertex="1" parent="1">
          <mxGeometry x="651" y="875" width="43" height="62" as="geometry" />
        </mxCell>
      </root>
    </mxGraphModel>
  </diagram>
</mxfile>
